# xmcd
#
# Track frame offsets:
#	150
#	16232
#	28296
#	42090
#	58903
#	76067
#	94199
#	110701
#	130140
#	147133
#	163394
#	177739
#
# Disc length: 2684 seconds
#
# Revision: 5
# Processed by: cddbd v1.5.1PL2 Copyright (c) Steve Scherf et al.
# Submitted via: EasyCDDAExtractor 9.0.0.1
#
DISCID=a80a7a0c
DTITLE=Shania Twain - For The Love Of Him
DYEAR=2000
DGENRE=Country
TTITLE0=For The Love Of Him
TTITLE1=Bite My Lip
TTITLE2=Wild And Wicked
TTITLE3=Send It With Love
TTITLE4=Once Over (Don't Gimme That)
TTITLE5=Hate To Love
TTITLE6=Luv Eyes
TTITLE7=I Lost My Heart When I Found You
TTITLE8=The Rythm Made Me Do It
TTITLE9=Two Hearts One Love
TTITLE10=Half Breed
TTITLE11=For The Love Of Him (Dance Mix)
EXTD=
EXTT0=
EXTT1=
EXTT2=
EXTT3=
EXTT4=
EXTT5=
EXTT6=
EXTT7=
EXTT8=
EXTT9=
EXTT10=
EXTT11=
PLAYORDER=
